<mxfile host="app.diagrams.net" modified="2021-12-17T12:18:00.645Z" agent="5.0 (Windows NT 10.0; Win64; x64) AppleWebKit/537.36 (KHTML, like Gecko) Chrome/96.0.4664.110 Safari/537.36" etag="DQZZjyaz_AuBO846o3z2" version="15.9.6" type="github">
  <diagram id="C5RBs43oDa-KdzZeNtuy" name="Page-1">
    <mxGraphModel dx="1088" dy="783" grid="1" gridSize="10" guides="1" tooltips="1" connect="1" arrows="1" fold="1" page="1" pageScale="1" pageWidth="827" pageHeight="1169" math="0" shadow="0">
      <root>
        <mxCell id="WIyWlLk6GJQsqaUBKTNV-0" />
        <mxCell id="WIyWlLk6GJQsqaUBKTNV-1" parent="WIyWlLk6GJQsqaUBKTNV-0" />
        <mxCell id="L5e1cLYehbOBK374T9Pf-0" style="edgeStyle=orthogonalEdgeStyle;rounded=0;orthogonalLoop=1;jettySize=auto;html=1;exitX=0.5;exitY=1;exitDx=0;exitDy=0;entryX=0.5;entryY=0;entryDx=0;entryDy=0;sketch=1;strokeWidth=1;shadow=1;fillColor=default;shape=flexArrow;" parent="WIyWlLk6GJQsqaUBKTNV-1" source="L5e1cLYehbOBK374T9Pf-7" target="L5e1cLYehbOBK374T9Pf-3" edge="1">
          <mxGeometry relative="1" as="geometry">
            <mxPoint x="235.44" y="300" as="sourcePoint" />
          </mxGeometry>
        </mxCell>
        <mxCell id="L5e1cLYehbOBK374T9Pf-1" value="Yes" style="edgeStyle=orthogonalEdgeStyle;rounded=0;orthogonalLoop=1;jettySize=auto;html=1;exitX=1;exitY=0.5;exitDx=0;exitDy=0;entryX=0;entryY=0.5;entryDx=0;entryDy=0;sketch=1;strokeWidth=1;shadow=1;fillColor=default;shape=flexArrow;" parent="WIyWlLk6GJQsqaUBKTNV-1" source="L5e1cLYehbOBK374T9Pf-3" target="L5e1cLYehbOBK374T9Pf-4" edge="1">
          <mxGeometry relative="1" as="geometry">
            <mxPoint x="475.44000000000005" y="410" as="targetPoint" />
          </mxGeometry>
        </mxCell>
        <mxCell id="L5e1cLYehbOBK374T9Pf-2" value="No" style="edgeStyle=orthogonalEdgeStyle;rounded=0;orthogonalLoop=1;jettySize=auto;html=1;exitX=0.5;exitY=1;exitDx=0;exitDy=0;entryX=0.5;entryY=0;entryDx=0;entryDy=0;sketch=1;strokeWidth=1;shadow=1;fillColor=default;shape=flexArrow;" parent="WIyWlLk6GJQsqaUBKTNV-1" source="L5e1cLYehbOBK374T9Pf-3" target="h9xpafBvBBpvsFGeRTuZ-0" edge="1">
          <mxGeometry relative="1" as="geometry">
            <mxPoint x="310" y="554.5" as="targetPoint" />
          </mxGeometry>
        </mxCell>
        <mxCell id="L5e1cLYehbOBK374T9Pf-3" value="User enters &#39;stop&#39;" style="rhombus;whiteSpace=wrap;html=1;shadow=0;fontFamily=Helvetica;fontSize=12;align=center;strokeWidth=2;spacing=6;spacingTop=-4;fillColor=#dae8fc;strokeColor=#6c8ebf;sketch=1;fillStyle=solid;" parent="WIyWlLk6GJQsqaUBKTNV-1" vertex="1">
          <mxGeometry x="250" y="340" width="120" height="120" as="geometry" />
        </mxCell>
        <mxCell id="L5e1cLYehbOBK374T9Pf-4" value="Go to Start Screen" style="rounded=1;whiteSpace=wrap;html=1;fontSize=12;glass=0;strokeWidth=2;shadow=0;fillColor=#f8cecc;strokeColor=#b85450;spacing=6;spacingTop=-4;sketch=1;fillStyle=solid;" parent="WIyWlLk6GJQsqaUBKTNV-1" vertex="1">
          <mxGeometry x="450" y="370" width="120" height="60" as="geometry" />
        </mxCell>
        <mxCell id="L5e1cLYehbOBK374T9Pf-5" style="edgeStyle=orthogonalEdgeStyle;rounded=0;orthogonalLoop=1;jettySize=auto;html=1;exitX=0.5;exitY=1;exitDx=0;exitDy=0;entryX=0.5;entryY=0;entryDx=0;entryDy=0;sketch=1;strokeWidth=1;shadow=1;fillColor=default;shape=flexArrow;" parent="WIyWlLk6GJQsqaUBKTNV-1" source="L5e1cLYehbOBK374T9Pf-6" target="L5e1cLYehbOBK374T9Pf-7" edge="1">
          <mxGeometry relative="1" as="geometry" />
        </mxCell>
        <mxCell id="L5e1cLYehbOBK374T9Pf-6" value="A brief message and instructions appear to the user." style="rounded=1;whiteSpace=wrap;html=1;fontSize=12;glass=0;strokeWidth=2;shadow=0;fillColor=#d5e8d4;strokeColor=#82b366;spacing=6;spacingTop=-4;sketch=1;fillStyle=solid;" parent="WIyWlLk6GJQsqaUBKTNV-1" vertex="1">
          <mxGeometry x="240" y="50" width="140" height="80" as="geometry" />
        </mxCell>
        <mxCell id="L5e1cLYehbOBK374T9Pf-7" value="User must enter number of words to print." style="rounded=0;whiteSpace=wrap;html=1;fillColor=#fff2cc;strokeColor=#d6b656;shadow=0;strokeWidth=2;spacing=6;spacingTop=-4;sketch=1;fillStyle=solid;" parent="WIyWlLk6GJQsqaUBKTNV-1" vertex="1">
          <mxGeometry x="250" y="200" width="120" height="60" as="geometry" />
        </mxCell>
        <mxCell id="L5e1cLYehbOBK374T9Pf-8" value="Go to Start Screen" style="rounded=1;whiteSpace=wrap;html=1;fontSize=12;glass=0;strokeWidth=2;shadow=0;fillColor=#f8cecc;strokeColor=#b85450;spacing=6;spacingTop=-4;sketch=1;fillStyle=solid;" parent="WIyWlLk6GJQsqaUBKTNV-1" vertex="1">
          <mxGeometry x="650" y="1050" width="120" height="60" as="geometry" />
        </mxCell>
        <mxCell id="L5e1cLYehbOBK374T9Pf-13" style="edgeStyle=orthogonalEdgeStyle;shape=flexArrow;rounded=0;sketch=1;orthogonalLoop=1;jettySize=auto;html=1;exitX=0.5;exitY=1;exitDx=0;exitDy=0;entryX=0.5;entryY=0;entryDx=0;entryDy=0;shadow=1;labelBackgroundColor=default;fontFamily=Helvetica;fontSize=11;fontColor=default;endArrow=classic;strokeColor=default;strokeWidth=1;fillColor=default;" parent="WIyWlLk6GJQsqaUBKTNV-1" source="h9xpafBvBBpvsFGeRTuZ-22" target="L5e1cLYehbOBK374T9Pf-8" edge="1">
          <mxGeometry relative="1" as="geometry">
            <mxPoint x="710" y="970" as="sourcePoint" />
          </mxGeometry>
        </mxCell>
        <mxCell id="h9xpafBvBBpvsFGeRTuZ-2" value="Yes&lt;br&gt;" style="edgeStyle=orthogonalEdgeStyle;rounded=0;orthogonalLoop=1;jettySize=auto;html=1;exitX=1;exitY=0.5;exitDx=0;exitDy=0;sketch=1;strokeWidth=1;shadow=1;fillColor=default;shape=flexArrow;entryX=0;entryY=0.5;entryDx=0;entryDy=0;" edge="1" parent="WIyWlLk6GJQsqaUBKTNV-1" source="h9xpafBvBBpvsFGeRTuZ-0" target="h9xpafBvBBpvsFGeRTuZ-3">
          <mxGeometry relative="1" as="geometry">
            <mxPoint x="480" y="600" as="targetPoint" />
          </mxGeometry>
        </mxCell>
        <mxCell id="h9xpafBvBBpvsFGeRTuZ-4" value="No" style="edgeStyle=orthogonalEdgeStyle;shape=flexArrow;rounded=0;sketch=1;orthogonalLoop=1;jettySize=auto;html=1;exitX=0;exitY=0.5;exitDx=0;exitDy=0;shadow=1;labelBackgroundColor=default;fontFamily=Helvetica;fontSize=11;fontColor=default;endArrow=classic;strokeColor=default;strokeWidth=1;fillColor=default;entryX=0.5;entryY=1;entryDx=0;entryDy=0;" edge="1" parent="WIyWlLk6GJQsqaUBKTNV-1" source="h9xpafBvBBpvsFGeRTuZ-0" target="h9xpafBvBBpvsFGeRTuZ-5">
          <mxGeometry relative="1" as="geometry">
            <mxPoint x="190" y="450" as="targetPoint" />
            <Array as="points">
              <mxPoint x="110" y="600" />
            </Array>
          </mxGeometry>
        </mxCell>
        <mxCell id="h9xpafBvBBpvsFGeRTuZ-0" value="User enters &lt;br&gt;integer less than total words" style="rhombus;whiteSpace=wrap;html=1;shadow=0;fontFamily=Helvetica;fontSize=12;align=center;strokeWidth=2;spacing=6;spacingTop=-4;fillColor=#dae8fc;strokeColor=#6c8ebf;sketch=1;fillStyle=solid;" vertex="1" parent="WIyWlLk6GJQsqaUBKTNV-1">
          <mxGeometry x="250" y="540" width="120" height="120" as="geometry" />
        </mxCell>
        <mxCell id="h9xpafBvBBpvsFGeRTuZ-10" style="edgeStyle=orthogonalEdgeStyle;shape=flexArrow;rounded=0;sketch=1;orthogonalLoop=1;jettySize=auto;html=1;exitX=0.5;exitY=1;exitDx=0;exitDy=0;entryX=0.5;entryY=0;entryDx=0;entryDy=0;shadow=1;labelBackgroundColor=default;fontFamily=Helvetica;fontSize=11;fontColor=default;endArrow=classic;strokeColor=default;strokeWidth=1;fillColor=default;" edge="1" parent="WIyWlLk6GJQsqaUBKTNV-1" source="h9xpafBvBBpvsFGeRTuZ-3" target="h9xpafBvBBpvsFGeRTuZ-8">
          <mxGeometry relative="1" as="geometry" />
        </mxCell>
        <mxCell id="h9xpafBvBBpvsFGeRTuZ-3" value="User must enter a file path" style="rounded=0;whiteSpace=wrap;html=1;fillColor=#fff2cc;strokeColor=#d6b656;shadow=0;strokeWidth=2;spacing=6;spacingTop=-4;sketch=1;fillStyle=solid;" vertex="1" parent="WIyWlLk6GJQsqaUBKTNV-1">
          <mxGeometry x="450" y="570" width="120" height="60" as="geometry" />
        </mxCell>
        <mxCell id="h9xpafBvBBpvsFGeRTuZ-6" style="edgeStyle=orthogonalEdgeStyle;shape=flexArrow;rounded=0;sketch=1;orthogonalLoop=1;jettySize=auto;html=1;exitX=0.5;exitY=0;exitDx=0;exitDy=0;entryX=0;entryY=0.5;entryDx=0;entryDy=0;shadow=1;labelBackgroundColor=default;fontFamily=Helvetica;fontSize=11;fontColor=default;endArrow=classic;strokeColor=default;strokeWidth=1;fillColor=default;" edge="1" parent="WIyWlLk6GJQsqaUBKTNV-1" source="h9xpafBvBBpvsFGeRTuZ-5" target="L5e1cLYehbOBK374T9Pf-7">
          <mxGeometry relative="1" as="geometry" />
        </mxCell>
        <mxCell id="h9xpafBvBBpvsFGeRTuZ-5" value="Error message displays" style="rounded=0;whiteSpace=wrap;html=1;fillColor=#fff2cc;strokeColor=#d6b656;shadow=0;strokeWidth=2;spacing=6;spacingTop=-4;sketch=1;fillStyle=solid;" vertex="1" parent="WIyWlLk6GJQsqaUBKTNV-1">
          <mxGeometry x="50" y="370" width="120" height="60" as="geometry" />
        </mxCell>
        <mxCell id="h9xpafBvBBpvsFGeRTuZ-7" value="Yes" style="edgeStyle=orthogonalEdgeStyle;rounded=0;orthogonalLoop=1;jettySize=auto;html=1;exitX=1;exitY=0.5;exitDx=0;exitDy=0;entryX=0;entryY=0.5;entryDx=0;entryDy=0;sketch=1;strokeWidth=1;shadow=1;fillColor=default;shape=flexArrow;" edge="1" parent="WIyWlLk6GJQsqaUBKTNV-1" source="h9xpafBvBBpvsFGeRTuZ-8" target="h9xpafBvBBpvsFGeRTuZ-9">
          <mxGeometry relative="1" as="geometry">
            <mxPoint x="675.44" y="780" as="targetPoint" />
          </mxGeometry>
        </mxCell>
        <mxCell id="h9xpafBvBBpvsFGeRTuZ-11" value="No" style="edgeStyle=orthogonalEdgeStyle;shape=flexArrow;rounded=0;sketch=1;orthogonalLoop=1;jettySize=auto;html=1;exitX=0;exitY=0.5;exitDx=0;exitDy=0;shadow=1;labelBackgroundColor=default;fontFamily=Helvetica;fontSize=11;fontColor=default;endArrow=classic;strokeColor=default;strokeWidth=1;fillColor=default;entryX=1;entryY=0.5;entryDx=0;entryDy=0;" edge="1" parent="WIyWlLk6GJQsqaUBKTNV-1" source="h9xpafBvBBpvsFGeRTuZ-8" target="h9xpafBvBBpvsFGeRTuZ-12">
          <mxGeometry relative="1" as="geometry">
            <mxPoint x="370" y="770" as="targetPoint" />
          </mxGeometry>
        </mxCell>
        <mxCell id="h9xpafBvBBpvsFGeRTuZ-8" value="User enters &#39;Stop&#39;" style="rhombus;whiteSpace=wrap;html=1;shadow=0;fontFamily=Helvetica;fontSize=12;align=center;strokeWidth=2;spacing=6;spacingTop=-4;fillColor=#dae8fc;strokeColor=#6c8ebf;sketch=1;fillStyle=solid;" vertex="1" parent="WIyWlLk6GJQsqaUBKTNV-1">
          <mxGeometry x="450" y="710" width="120" height="120" as="geometry" />
        </mxCell>
        <mxCell id="h9xpafBvBBpvsFGeRTuZ-9" value="Go to Start Screen" style="rounded=1;whiteSpace=wrap;html=1;fontSize=12;glass=0;strokeWidth=2;shadow=0;fillColor=#f8cecc;strokeColor=#b85450;spacing=6;spacingTop=-4;sketch=1;fillStyle=solid;" vertex="1" parent="WIyWlLk6GJQsqaUBKTNV-1">
          <mxGeometry x="650" y="740" width="120" height="60" as="geometry" />
        </mxCell>
        <mxCell id="h9xpafBvBBpvsFGeRTuZ-13" value="No" style="edgeStyle=orthogonalEdgeStyle;shape=flexArrow;rounded=0;sketch=1;orthogonalLoop=1;jettySize=auto;html=1;exitX=0;exitY=0.5;exitDx=0;exitDy=0;shadow=1;labelBackgroundColor=default;fontFamily=Helvetica;fontSize=11;fontColor=default;endArrow=classic;strokeColor=default;strokeWidth=1;fillColor=default;entryX=1;entryY=0.5;entryDx=0;entryDy=0;" edge="1" parent="WIyWlLk6GJQsqaUBKTNV-1" source="h9xpafBvBBpvsFGeRTuZ-12" target="h9xpafBvBBpvsFGeRTuZ-15">
          <mxGeometry relative="1" as="geometry">
            <mxPoint x="170" y="770" as="targetPoint" />
          </mxGeometry>
        </mxCell>
        <mxCell id="h9xpafBvBBpvsFGeRTuZ-14" value="Yes" style="edgeStyle=orthogonalEdgeStyle;shape=flexArrow;rounded=0;sketch=1;orthogonalLoop=1;jettySize=auto;html=1;exitX=0.5;exitY=1;exitDx=0;exitDy=0;shadow=1;labelBackgroundColor=default;fontFamily=Helvetica;fontSize=11;fontColor=default;endArrow=classic;strokeColor=default;strokeWidth=1;fillColor=default;" edge="1" parent="WIyWlLk6GJQsqaUBKTNV-1" source="h9xpafBvBBpvsFGeRTuZ-12" target="h9xpafBvBBpvsFGeRTuZ-17">
          <mxGeometry relative="1" as="geometry">
            <mxPoint x="310" y="910" as="targetPoint" />
          </mxGeometry>
        </mxCell>
        <mxCell id="h9xpafBvBBpvsFGeRTuZ-12" value="User enters filename and directory" style="rhombus;whiteSpace=wrap;html=1;shadow=0;fontFamily=Helvetica;fontSize=12;align=center;strokeWidth=2;spacing=6;spacingTop=-4;fillColor=#dae8fc;strokeColor=#6c8ebf;sketch=1;fillStyle=solid;" vertex="1" parent="WIyWlLk6GJQsqaUBKTNV-1">
          <mxGeometry x="250" y="710" width="120" height="120" as="geometry" />
        </mxCell>
        <mxCell id="h9xpafBvBBpvsFGeRTuZ-20" style="edgeStyle=orthogonalEdgeStyle;shape=flexArrow;rounded=0;sketch=1;orthogonalLoop=1;jettySize=auto;html=1;exitX=0.5;exitY=1;exitDx=0;exitDy=0;entryX=0.5;entryY=1;entryDx=0;entryDy=0;shadow=1;labelBackgroundColor=default;fontFamily=Helvetica;fontSize=11;fontColor=default;endArrow=classic;strokeColor=default;strokeWidth=1;fillColor=default;" edge="1" parent="WIyWlLk6GJQsqaUBKTNV-1" source="h9xpafBvBBpvsFGeRTuZ-15" target="h9xpafBvBBpvsFGeRTuZ-18">
          <mxGeometry relative="1" as="geometry">
            <Array as="points">
              <mxPoint x="110" y="1040" />
              <mxPoint x="510" y="1040" />
            </Array>
          </mxGeometry>
        </mxCell>
        <mxCell id="h9xpafBvBBpvsFGeRTuZ-15" value="Generic filename in current directory used." style="rounded=0;whiteSpace=wrap;html=1;fillColor=#fff2cc;strokeColor=#d6b656;shadow=0;strokeWidth=2;spacing=6;spacingTop=-4;sketch=1;fillStyle=solid;" vertex="1" parent="WIyWlLk6GJQsqaUBKTNV-1">
          <mxGeometry x="50" y="740" width="120" height="60" as="geometry" />
        </mxCell>
        <mxCell id="h9xpafBvBBpvsFGeRTuZ-19" style="edgeStyle=orthogonalEdgeStyle;shape=flexArrow;rounded=0;sketch=1;orthogonalLoop=1;jettySize=auto;html=1;exitX=1;exitY=0.5;exitDx=0;exitDy=0;entryX=0;entryY=0.5;entryDx=0;entryDy=0;shadow=1;labelBackgroundColor=default;fontFamily=Helvetica;fontSize=11;fontColor=default;endArrow=classic;strokeColor=default;strokeWidth=1;fillColor=default;" edge="1" parent="WIyWlLk6GJQsqaUBKTNV-1" source="h9xpafBvBBpvsFGeRTuZ-17" target="h9xpafBvBBpvsFGeRTuZ-18">
          <mxGeometry relative="1" as="geometry" />
        </mxCell>
        <mxCell id="h9xpafBvBBpvsFGeRTuZ-17" value="Custom filename in current directory used." style="rounded=0;whiteSpace=wrap;html=1;fillColor=#fff2cc;strokeColor=#d6b656;shadow=0;strokeWidth=2;spacing=6;spacingTop=-4;sketch=1;fillStyle=solid;" vertex="1" parent="WIyWlLk6GJQsqaUBKTNV-1">
          <mxGeometry x="250" y="910" width="120" height="60" as="geometry" />
        </mxCell>
        <mxCell id="h9xpafBvBBpvsFGeRTuZ-21" value="No" style="edgeStyle=orthogonalEdgeStyle;shape=flexArrow;rounded=0;sketch=1;orthogonalLoop=1;jettySize=auto;html=1;exitX=0.5;exitY=0;exitDx=0;exitDy=0;shadow=1;labelBackgroundColor=default;fontFamily=Helvetica;fontSize=11;fontColor=default;endArrow=classic;strokeColor=default;strokeWidth=1;fillColor=default;entryX=1;entryY=0.5;entryDx=0;entryDy=0;" edge="1" parent="WIyWlLk6GJQsqaUBKTNV-1" source="h9xpafBvBBpvsFGeRTuZ-18" target="h9xpafBvBBpvsFGeRTuZ-3">
          <mxGeometry relative="1" as="geometry">
            <mxPoint x="550" y="690" as="targetPoint" />
            <Array as="points">
              <mxPoint x="510" y="850" />
              <mxPoint x="800" y="850" />
              <mxPoint x="800" y="600" />
            </Array>
          </mxGeometry>
        </mxCell>
        <mxCell id="h9xpafBvBBpvsFGeRTuZ-23" value="Yes" style="edgeStyle=orthogonalEdgeStyle;shape=flexArrow;rounded=0;sketch=1;orthogonalLoop=1;jettySize=auto;html=1;exitX=1;exitY=0.5;exitDx=0;exitDy=0;shadow=1;labelBackgroundColor=default;fontFamily=Helvetica;fontSize=11;fontColor=default;endArrow=classic;strokeColor=default;strokeWidth=1;fillColor=default;" edge="1" parent="WIyWlLk6GJQsqaUBKTNV-1" source="h9xpafBvBBpvsFGeRTuZ-18" target="h9xpafBvBBpvsFGeRTuZ-22">
          <mxGeometry relative="1" as="geometry" />
        </mxCell>
        <mxCell id="h9xpafBvBBpvsFGeRTuZ-18" value="User confirms correct filename" style="rhombus;whiteSpace=wrap;html=1;shadow=0;fontFamily=Helvetica;fontSize=12;align=center;strokeWidth=2;spacing=6;spacingTop=-4;fillColor=#dae8fc;strokeColor=#6c8ebf;sketch=1;fillStyle=solid;" vertex="1" parent="WIyWlLk6GJQsqaUBKTNV-1">
          <mxGeometry x="450" y="880" width="120" height="120" as="geometry" />
        </mxCell>
        <mxCell id="h9xpafBvBBpvsFGeRTuZ-22" value="New file created and message displays." style="rounded=0;whiteSpace=wrap;html=1;fillColor=#fff2cc;strokeColor=#d6b656;shadow=0;strokeWidth=2;spacing=6;spacingTop=-4;sketch=1;fillStyle=solid;" vertex="1" parent="WIyWlLk6GJQsqaUBKTNV-1">
          <mxGeometry x="650" y="910" width="120" height="60" as="geometry" />
        </mxCell>
      </root>
    </mxGraphModel>
  </diagram>
</mxfile>
